<mxfile host="Electron" modified="2024-04-26T09:09:41.949Z" agent="Mozilla/5.0 (Windows NT 10.0; Win64; x64) AppleWebKit/537.36 (KHTML, like Gecko) draw.io/24.2.5 Chrome/120.0.6099.109 Electron/28.1.0 Safari/537.36" etag="sIgaYvc7DifJIYTEBR5o" version="24.2.5" type="device" pages="2">
  <diagram name="Componentes" id="bf0w6irVQ9VZcpmi0wYP">
    <mxGraphModel dx="2250" dy="1429" grid="0" gridSize="10" guides="1" tooltips="1" connect="1" arrows="1" fold="1" page="0" pageScale="1" pageWidth="1169" pageHeight="827" background="#18141D" math="0" shadow="0">
      <root>
        <mxCell id="0" />
        <mxCell id="1" parent="0" />
        <mxCell id="W-s0RWdX2DCdfJQKLz9t-1" value="Servicio Al Cliente" style="swimlane;whiteSpace=wrap;html=1;fontSize=23;startSize=38;" parent="1" vertex="1">
          <mxGeometry x="-994" y="-785" width="2479" height="1103" as="geometry" />
        </mxCell>
        <mxCell id="RBkSxb2MmsbSGxAvmeb7-1" value="&lt;p style=&quot;margin: 6px 0px 0px; font-size: 17px;&quot;&gt;&lt;b style=&quot;font-size: 17px;&quot;&gt;Aplication&lt;/b&gt;&lt;/p&gt;&lt;hr style=&quot;border-style: solid; font-size: 17px;&quot;&gt;&lt;p style=&quot;margin: 0px 0px 0px 8px; font-size: 17px;&quot;&gt;&lt;br&gt;&lt;/p&gt;" style="align=center;overflow=fill;html=1;dropTarget=0;whiteSpace=wrap;fontSize=17;verticalAlign=middle;" parent="W-s0RWdX2DCdfJQKLz9t-1" vertex="1">
          <mxGeometry x="969" y="201" width="847" height="332" as="geometry" />
        </mxCell>
        <mxCell id="RBkSxb2MmsbSGxAvmeb7-2" value="" style="shape=component;jettyWidth=8;jettyHeight=4;align=center;verticalAlign=middle;" parent="RBkSxb2MmsbSGxAvmeb7-1" vertex="1">
          <mxGeometry x="1" width="20" height="20" relative="1" as="geometry">
            <mxPoint x="-24" y="4" as="offset" />
          </mxGeometry>
        </mxCell>
        <mxCell id="X8-4T8FSmSqOU-YewqkV-1" value="&lt;p style=&quot;margin: 6px 0px 0px; font-size: 18px;&quot;&gt;&lt;b style=&quot;font-size: 18px;&quot;&gt;MongoDB Instances&lt;/b&gt;&lt;/p&gt;&lt;hr style=&quot;border-style: solid; font-size: 18px;&quot;&gt;&lt;p style=&quot;margin: 0px 0px 0px 8px; font-size: 18px;&quot;&gt;+ Ordenes&lt;/p&gt;&lt;p style=&quot;margin: 0px 0px 0px 8px; font-size: 18px;&quot;&gt;+ Clientes&lt;/p&gt;&lt;p style=&quot;margin: 0px 0px 0px 8px; font-size: 18px;&quot;&gt;+ Facturas&lt;/p&gt;&lt;p style=&quot;margin: 0px 0px 0px 8px; font-size: 18px;&quot;&gt;+ Meseros&lt;/p&gt;" style="align=center;overflow=fill;html=1;dropTarget=0;whiteSpace=wrap;fontSize=18;verticalAlign=middle;" parent="W-s0RWdX2DCdfJQKLz9t-1" vertex="1">
          <mxGeometry x="1627" y="617" width="343.46" height="232" as="geometry" />
        </mxCell>
        <mxCell id="X8-4T8FSmSqOU-YewqkV-2" value="" style="shape=component;jettyWidth=8;jettyHeight=4;align=center;verticalAlign=middle;" parent="X8-4T8FSmSqOU-YewqkV-1" vertex="1">
          <mxGeometry x="1" width="20" height="20" relative="1" as="geometry">
            <mxPoint x="-24" y="4" as="offset" />
          </mxGeometry>
        </mxCell>
        <mxCell id="X8-4T8FSmSqOU-YewqkV-3" value="&lt;p style=&quot;margin: 6px 0px 0px; font-size: 18px;&quot;&gt;&lt;b style=&quot;font-size: 18px;&quot;&gt;Integración pasarela de pagos&lt;/b&gt;&lt;/p&gt;&lt;hr style=&quot;border-style: solid; font-size: 18px;&quot;&gt;&lt;p style=&quot;margin: 0px 0px 0px 8px; font-size: 18px;&quot;&gt;+ API segura&lt;br style=&quot;font-size: 18px;&quot;&gt;+ Tokenización&lt;/p&gt;&lt;p style=&quot;margin: 0px 0px 0px 8px; font-size: 18px;&quot;&gt;+&amp;nbsp;Transacciones&lt;/p&gt;" style="align=center;overflow=fill;html=1;dropTarget=0;whiteSpace=wrap;fontSize=18;verticalAlign=middle;" parent="W-s0RWdX2DCdfJQKLz9t-1" vertex="1">
          <mxGeometry x="568" y="514" width="350" height="218" as="geometry" />
        </mxCell>
        <mxCell id="X8-4T8FSmSqOU-YewqkV-4" value="" style="shape=component;jettyWidth=8;jettyHeight=4;align=center;verticalAlign=middle;" parent="X8-4T8FSmSqOU-YewqkV-3" vertex="1">
          <mxGeometry x="1" width="20" height="20" relative="1" as="geometry">
            <mxPoint x="-24" y="4" as="offset" />
          </mxGeometry>
        </mxCell>
        <mxCell id="X8-4T8FSmSqOU-YewqkV-15" value="&lt;p style=&quot;margin: 6px 0px 0px; font-size: 18px;&quot;&gt;&lt;b&gt;Servicio de correo&amp;nbsp;&lt;/b&gt;&lt;span style=&quot;background-color: initial;&quot;&gt;&lt;b&gt;electrónico&lt;/b&gt;&lt;/span&gt;&lt;br&gt;&lt;/p&gt;&lt;hr style=&quot;border-style: solid; font-size: 18px;&quot;&gt;&lt;p style=&quot;margin: 0px 0px 0px 8px; font-size: 18px;&quot;&gt;+&amp;nbsp;&lt;span style=&quot;background-color: initial;&quot;&gt;Envío de facturas&lt;/span&gt;&lt;/p&gt;&lt;p style=&quot;margin: 0px 0px 0px 8px; font-size: 18px;&quot;&gt;&lt;span style=&quot;background-color: initial;&quot;&gt;+&amp;nbsp;&lt;/span&gt;&lt;span style=&quot;background-color: initial;&quot;&gt;Notificaciones&lt;/span&gt;&lt;/p&gt;" style="align=center;overflow=fill;html=1;dropTarget=0;whiteSpace=wrap;fontSize=18;verticalAlign=middle;" parent="W-s0RWdX2DCdfJQKLz9t-1" vertex="1">
          <mxGeometry x="1020.69" y="697" width="267" height="162" as="geometry" />
        </mxCell>
        <mxCell id="X8-4T8FSmSqOU-YewqkV-16" value="" style="shape=component;jettyWidth=8;jettyHeight=4;align=center;verticalAlign=middle;" parent="X8-4T8FSmSqOU-YewqkV-15" vertex="1">
          <mxGeometry x="1" width="20" height="20" relative="1" as="geometry">
            <mxPoint x="-24" y="4" as="offset" />
          </mxGeometry>
        </mxCell>
        <mxCell id="X8-4T8FSmSqOU-YewqkV-17" value="DATAFONO" style="verticalAlign=middle;align=center;spacingTop=8;spacingLeft=2;spacingRight=12;shape=cube;size=10;direction=south;fontStyle=4;html=1;whiteSpace=wrap;" parent="W-s0RWdX2DCdfJQKLz9t-1" vertex="1">
          <mxGeometry x="124" y="482" width="180" height="120" as="geometry" />
        </mxCell>
        <mxCell id="X8-4T8FSmSqOU-YewqkV-18" value="" style="endArrow=open;endFill=1;endSize=12;html=1;rounded=0;entryX=0.547;entryY=-0.025;entryDx=0;entryDy=0;entryPerimeter=0;exitX=0;exitY=0.5;exitDx=0;exitDy=0;align=center;verticalAlign=middle;" parent="W-s0RWdX2DCdfJQKLz9t-1" source="X8-4T8FSmSqOU-YewqkV-3" target="X8-4T8FSmSqOU-YewqkV-17" edge="1">
          <mxGeometry width="160" relative="1" as="geometry">
            <mxPoint x="423" y="603" as="sourcePoint" />
            <mxPoint x="583" y="603" as="targetPoint" />
          </mxGeometry>
        </mxCell>
        <mxCell id="X8-4T8FSmSqOU-YewqkV-21" value="&lt;p style=&quot;margin: 6px 0px 0px; font-size: 18px;&quot;&gt;&lt;b style=&quot;font-size: 18px;&quot;&gt;FrontEnd&lt;/b&gt;&lt;/p&gt;&lt;hr style=&quot;border-style: solid; font-size: 18px;&quot;&gt;&lt;p style=&quot;margin: 0px 0px 0px 8px; font-size: 18px;&quot;&gt;&lt;br&gt;&lt;/p&gt;" style="align=center;overflow=fill;html=1;dropTarget=0;whiteSpace=wrap;fontSize=18;verticalAlign=middle;" parent="W-s0RWdX2DCdfJQKLz9t-1" vertex="1">
          <mxGeometry x="998" y="250" width="312" height="214" as="geometry" />
        </mxCell>
        <mxCell id="X8-4T8FSmSqOU-YewqkV-22" value="" style="shape=component;jettyWidth=8;jettyHeight=4;align=center;verticalAlign=middle;" parent="X8-4T8FSmSqOU-YewqkV-21" vertex="1">
          <mxGeometry x="1" width="20" height="20" relative="1" as="geometry">
            <mxPoint x="-24" y="4" as="offset" />
          </mxGeometry>
        </mxCell>
        <mxCell id="X8-4T8FSmSqOU-YewqkV-23" value="UI (Interfaz de Usuario)" style="shape=module;align=center;spacingLeft=20;align=center;verticalAlign=middle;whiteSpace=wrap;html=1;" parent="W-s0RWdX2DCdfJQKLz9t-1" vertex="1">
          <mxGeometry x="1044" y="332" width="100" height="50" as="geometry" />
        </mxCell>
        <mxCell id="X8-4T8FSmSqOU-YewqkV-24" value="Lógica de Presentación" style="shape=module;align=center;spacingLeft=20;align=center;verticalAlign=middle;whiteSpace=wrap;html=1;" parent="W-s0RWdX2DCdfJQKLz9t-1" vertex="1">
          <mxGeometry x="1185" y="332" width="100" height="50" as="geometry" />
        </mxCell>
        <mxCell id="X8-4T8FSmSqOU-YewqkV-25" value="&lt;p style=&quot;margin: 6px 0px 0px; font-size: 18px;&quot;&gt;&lt;b&gt;Backend&lt;/b&gt;&lt;br&gt;&lt;/p&gt;&lt;hr style=&quot;border-style: solid; font-size: 18px;&quot;&gt;&lt;p style=&quot;margin: 0px 0px 0px 8px; font-size: 18px;&quot;&gt;&lt;br&gt;&lt;/p&gt;" style="align=center;overflow=fill;html=1;dropTarget=0;whiteSpace=wrap;fontSize=18;verticalAlign=middle;" parent="W-s0RWdX2DCdfJQKLz9t-1" vertex="1">
          <mxGeometry x="1416" y="260" width="312" height="214" as="geometry" />
        </mxCell>
        <mxCell id="X8-4T8FSmSqOU-YewqkV-26" value="" style="shape=component;jettyWidth=8;jettyHeight=4;align=center;verticalAlign=middle;" parent="X8-4T8FSmSqOU-YewqkV-25" vertex="1">
          <mxGeometry x="1" width="20" height="20" relative="1" as="geometry">
            <mxPoint x="-24" y="4" as="offset" />
          </mxGeometry>
        </mxCell>
        <mxCell id="X8-4T8FSmSqOU-YewqkV-27" value="Model" style="shape=module;align=center;spacingLeft=20;align=center;verticalAlign=middle;whiteSpace=wrap;html=1;" parent="W-s0RWdX2DCdfJQKLz9t-1" vertex="1">
          <mxGeometry x="1602" y="332" width="100" height="50" as="geometry" />
        </mxCell>
        <mxCell id="X8-4T8FSmSqOU-YewqkV-28" value="Lógica de Negocio" style="shape=module;align=center;spacingLeft=20;align=center;verticalAlign=middle;whiteSpace=wrap;html=1;" parent="W-s0RWdX2DCdfJQKLz9t-1" vertex="1">
          <mxGeometry x="1527" y="395" width="100" height="50" as="geometry" />
        </mxCell>
        <mxCell id="gxXneJY3fZqPgThAvyZT-1" value="Inventario" style="verticalAlign=middle;align=center;spacingTop=8;spacingLeft=2;spacingRight=12;shape=cube;size=10;direction=south;fontStyle=4;html=1;whiteSpace=wrap;" parent="W-s0RWdX2DCdfJQKLz9t-1" vertex="1">
          <mxGeometry x="2169" y="505" width="180" height="120" as="geometry" />
        </mxCell>
        <mxCell id="gxXneJY3fZqPgThAvyZT-3" value="" style="endArrow=open;endFill=1;endSize=12;html=1;rounded=0;exitX=0.5;exitY=1;exitDx=0;exitDy=0;entryX=0.5;entryY=0;entryDx=0;entryDy=0;align=center;verticalAlign=middle;" parent="W-s0RWdX2DCdfJQKLz9t-1" source="X8-4T8FSmSqOU-YewqkV-28" target="X8-4T8FSmSqOU-YewqkV-1" edge="1">
          <mxGeometry width="160" relative="1" as="geometry">
            <mxPoint x="1738" y="377" as="sourcePoint" />
            <mxPoint x="2179" y="580" as="targetPoint" />
          </mxGeometry>
        </mxCell>
        <mxCell id="gxXneJY3fZqPgThAvyZT-4" value="" style="endArrow=open;endFill=1;endSize=12;html=1;rounded=0;exitX=1;exitY=0.5;exitDx=0;exitDy=0;entryX=0;entryY=0;entryDx=120;entryDy=95;entryPerimeter=0;align=center;verticalAlign=middle;" parent="W-s0RWdX2DCdfJQKLz9t-1" source="X8-4T8FSmSqOU-YewqkV-1" target="gxXneJY3fZqPgThAvyZT-1" edge="1">
          <mxGeometry width="160" relative="1" as="geometry">
            <mxPoint x="1663" y="402" as="sourcePoint" />
            <mxPoint x="1809" y="627" as="targetPoint" />
          </mxGeometry>
        </mxCell>
        <mxCell id="gxXneJY3fZqPgThAvyZT-5" value="" style="rounded=0;orthogonalLoop=1;jettySize=auto;html=1;endArrow=halfCircle;endFill=0;endSize=6;strokeWidth=3;sketch=0;exitX=1;exitY=0.5;exitDx=0;exitDy=0;align=center;verticalAlign=middle;" parent="W-s0RWdX2DCdfJQKLz9t-1" source="X8-4T8FSmSqOU-YewqkV-25" target="gxXneJY3fZqPgThAvyZT-7" edge="1">
          <mxGeometry relative="1" as="geometry">
            <mxPoint x="1845" y="533" as="sourcePoint" />
          </mxGeometry>
        </mxCell>
        <mxCell id="gxXneJY3fZqPgThAvyZT-6" value="" style="rounded=0;orthogonalLoop=1;jettySize=auto;html=1;endArrow=oval;endFill=0;sketch=0;sourcePerimeterSpacing=0;targetPerimeterSpacing=0;endSize=10;exitX=0.435;exitY=1.002;exitDx=0;exitDy=0;exitPerimeter=0;align=center;verticalAlign=middle;strokeWidth=3;" parent="W-s0RWdX2DCdfJQKLz9t-1" source="gxXneJY3fZqPgThAvyZT-1" target="gxXneJY3fZqPgThAvyZT-7" edge="1">
          <mxGeometry relative="1" as="geometry">
            <mxPoint x="2055" y="415" as="sourcePoint" />
          </mxGeometry>
        </mxCell>
        <mxCell id="gxXneJY3fZqPgThAvyZT-7" value="" style="ellipse;whiteSpace=wrap;html=1;align=center;aspect=fixed;fillColor=none;strokeColor=none;resizable=0;perimeter=centerPerimeter;rotatable=0;allowArrows=0;points=[];outlineConnect=1;verticalAlign=middle;" parent="W-s0RWdX2DCdfJQKLz9t-1" vertex="1">
          <mxGeometry x="1927" y="445" width="10" height="10" as="geometry" />
        </mxCell>
        <mxCell id="ewGIUTFX-h3NYhkbbfX5-1" value="DB Acces" style="shape=module;align=center;spacingLeft=20;align=center;verticalAlign=middle;whiteSpace=wrap;html=1;" parent="W-s0RWdX2DCdfJQKLz9t-1" vertex="1">
          <mxGeometry x="1456" y="332" width="100" height="50" as="geometry" />
        </mxCell>
        <mxCell id="6r5POfKmQ3lRLtIwJJgQ-1" value="Cocina" style="verticalAlign=middle;align=center;spacingTop=8;spacingLeft=2;spacingRight=12;shape=cube;size=10;direction=south;fontStyle=4;html=1;whiteSpace=wrap;" parent="W-s0RWdX2DCdfJQKLz9t-1" vertex="1">
          <mxGeometry x="2102" y="188" width="180" height="120" as="geometry" />
        </mxCell>
        <mxCell id="6r5POfKmQ3lRLtIwJJgQ-2" value="" style="rounded=0;orthogonalLoop=1;jettySize=auto;html=1;endArrow=halfCircle;endFill=0;endSize=6;strokeWidth=3;sketch=0;exitX=0;exitY=0;exitDx=65;exitDy=180;exitPerimeter=0;" parent="W-s0RWdX2DCdfJQKLz9t-1" source="6r5POfKmQ3lRLtIwJJgQ-1" target="6r5POfKmQ3lRLtIwJJgQ-4" edge="1">
          <mxGeometry relative="1" as="geometry">
            <mxPoint x="1967" y="321" as="sourcePoint" />
          </mxGeometry>
        </mxCell>
        <mxCell id="6r5POfKmQ3lRLtIwJJgQ-3" value="" style="rounded=0;orthogonalLoop=1;jettySize=auto;html=1;endArrow=oval;endFill=0;sketch=0;sourcePerimeterSpacing=0;targetPerimeterSpacing=0;endSize=10;exitX=1.011;exitY=0.373;exitDx=0;exitDy=0;exitPerimeter=0;strokeWidth=3;" parent="W-s0RWdX2DCdfJQKLz9t-1" source="X8-4T8FSmSqOU-YewqkV-25" target="6r5POfKmQ3lRLtIwJJgQ-4" edge="1">
          <mxGeometry relative="1" as="geometry">
            <mxPoint x="1927" y="321" as="sourcePoint" />
          </mxGeometry>
        </mxCell>
        <mxCell id="6r5POfKmQ3lRLtIwJJgQ-4" value="" style="ellipse;whiteSpace=wrap;html=1;align=center;aspect=fixed;fillColor=none;strokeColor=none;resizable=0;perimeter=centerPerimeter;rotatable=0;allowArrows=0;points=[];outlineConnect=1;" parent="W-s0RWdX2DCdfJQKLz9t-1" vertex="1">
          <mxGeometry x="1924" y="289" width="10" height="10" as="geometry" />
        </mxCell>
      </root>
    </mxGraphModel>
  </diagram>
  <diagram id="iTFVx_ApouWxvOBqnYzn" name="Clases">
    <mxGraphModel dx="1850" dy="629" grid="0" gridSize="10" guides="1" tooltips="1" connect="1" arrows="1" fold="1" page="0" pageScale="1" pageWidth="1169" pageHeight="827" background="none" math="0" shadow="0">
      <root>
        <mxCell id="0" />
        <mxCell id="1" parent="0" />
        <mxCell id="mAJdVYJzqQcLpMr9d5LJ-3" value="Lógica de negocio" style="shape=umlFrame;whiteSpace=wrap;html=1;pointerEvents=0;" parent="1" vertex="1">
          <mxGeometry x="-738" y="160" width="1608" height="739" as="geometry" />
        </mxCell>
        <mxCell id="Eofr1Hd_Og4f4yc-9Sh_-1" value="Orden" style="swimlane;fontStyle=1;align=center;verticalAlign=top;childLayout=stackLayout;horizontal=1;startSize=26;horizontalStack=0;resizeParent=1;resizeParentMax=0;resizeLast=0;collapsible=1;marginBottom=0;hachureGap=4;pointerEvents=0;" parent="1" vertex="1">
          <mxGeometry x="-620" y="223" width="355" height="156" as="geometry" />
        </mxCell>
        <mxCell id="Eofr1Hd_Og4f4yc-9Sh_-2" value="+ crearOrden(int idOrden, Cliente cliente, productosJson: String,&#xa;float total, Date fechaCreación, EnEstado estado,&#xa;Mesero meseroAsignado)" style="text;strokeColor=none;fillColor=none;align=left;verticalAlign=top;spacingLeft=4;spacingRight=4;overflow=hidden;rotatable=0;points=[[0,0.5],[1,0.5]];portConstraint=eastwest;" parent="Eofr1Hd_Og4f4yc-9Sh_-1" vertex="1">
          <mxGeometry y="26" width="355" height="52" as="geometry" />
        </mxCell>
        <mxCell id="Eofr1Hd_Og4f4yc-9Sh_-3" value="+ actualizarEstadoOrden(EstadoOrden estado)" style="text;strokeColor=none;fillColor=none;align=left;verticalAlign=top;spacingLeft=4;spacingRight=4;overflow=hidden;rotatable=0;points=[[0,0.5],[1,0.5]];portConstraint=eastwest;" parent="Eofr1Hd_Og4f4yc-9Sh_-1" vertex="1">
          <mxGeometry y="78" width="355" height="26" as="geometry" />
        </mxCell>
        <mxCell id="Eofr1Hd_Og4f4yc-9Sh_-4" value="+ consultarOrden(int idOrden)" style="text;strokeColor=none;fillColor=none;align=left;verticalAlign=top;spacingLeft=4;spacingRight=4;overflow=hidden;rotatable=0;points=[[0,0.5],[1,0.5]];portConstraint=eastwest;" parent="Eofr1Hd_Og4f4yc-9Sh_-1" vertex="1">
          <mxGeometry y="104" width="355" height="26" as="geometry" />
        </mxCell>
        <mxCell id="tWbmudguXdJFlBCNDN5c-48" value="+ cancelarOrden(int idOrden)" style="text;strokeColor=none;fillColor=none;align=left;verticalAlign=top;spacingLeft=4;spacingRight=4;overflow=hidden;rotatable=0;points=[[0,0.5],[1,0.5]];portConstraint=eastwest;" parent="Eofr1Hd_Og4f4yc-9Sh_-1" vertex="1">
          <mxGeometry y="130" width="355" height="26" as="geometry" />
        </mxCell>
        <mxCell id="ao0SZSargIB-FPCJgtm4-1" value="Cliente" style="swimlane;fontStyle=1;align=center;verticalAlign=top;childLayout=stackLayout;horizontal=1;startSize=26;horizontalStack=0;resizeParent=1;resizeParentMax=0;resizeLast=0;collapsible=1;marginBottom=0;hachureGap=4;pointerEvents=0;" parent="1" vertex="1">
          <mxGeometry x="-203" y="229.5" width="355" height="170" as="geometry" />
        </mxCell>
        <mxCell id="ao0SZSargIB-FPCJgtm4-2" value="+ registrarCliente(int id, String cedula, String nombre,&#xa;String email, String telefono, int edad)" style="text;strokeColor=none;fillColor=none;align=left;verticalAlign=top;spacingLeft=4;spacingRight=4;overflow=hidden;rotatable=0;points=[[0,0.5],[1,0.5]];portConstraint=eastwest;" parent="ao0SZSargIB-FPCJgtm4-1" vertex="1">
          <mxGeometry y="26" width="355" height="40" as="geometry" />
        </mxCell>
        <mxCell id="ao0SZSargIB-FPCJgtm4-3" value="+ actualizarCliente(int id)" style="text;strokeColor=none;fillColor=none;align=left;verticalAlign=top;spacingLeft=4;spacingRight=4;overflow=hidden;rotatable=0;points=[[0,0.5],[1,0.5]];portConstraint=eastwest;" parent="ao0SZSargIB-FPCJgtm4-1" vertex="1">
          <mxGeometry y="66" width="355" height="26" as="geometry" />
        </mxCell>
        <mxCell id="0UY138ZUOvSj4V2idpC--27" value="+ verificarClienteRegistrado(String cedula)" style="text;strokeColor=none;fillColor=none;align=left;verticalAlign=top;spacingLeft=4;spacingRight=4;overflow=hidden;rotatable=0;points=[[0,0.5],[1,0.5]];portConstraint=eastwest;" parent="ao0SZSargIB-FPCJgtm4-1" vertex="1">
          <mxGeometry y="92" width="355" height="26" as="geometry" />
        </mxCell>
        <mxCell id="ao0SZSargIB-FPCJgtm4-5" value="+ eliminarCliente(int id)" style="text;strokeColor=none;fillColor=none;align=left;verticalAlign=top;spacingLeft=4;spacingRight=4;overflow=hidden;rotatable=0;points=[[0,0.5],[1,0.5]];portConstraint=eastwest;" parent="ao0SZSargIB-FPCJgtm4-1" vertex="1">
          <mxGeometry y="118" width="355" height="26" as="geometry" />
        </mxCell>
        <mxCell id="0UY138ZUOvSj4V2idpC--28" value="+ validarEdad(int edad)" style="text;strokeColor=none;fillColor=none;align=left;verticalAlign=top;spacingLeft=4;spacingRight=4;overflow=hidden;rotatable=0;points=[[0,0.5],[1,0.5]];portConstraint=eastwest;" parent="ao0SZSargIB-FPCJgtm4-1" vertex="1">
          <mxGeometry y="144" width="355" height="26" as="geometry" />
        </mxCell>
        <mxCell id="ao0SZSargIB-FPCJgtm4-8" value="Factura" style="swimlane;fontStyle=1;align=center;verticalAlign=top;childLayout=stackLayout;horizontal=1;startSize=26;horizontalStack=0;resizeParent=1;resizeParentMax=0;resizeLast=0;collapsible=1;marginBottom=0;hachureGap=4;pointerEvents=0;" parent="1" vertex="1">
          <mxGeometry x="-552" y="567" width="355" height="133" as="geometry" />
        </mxCell>
        <mxCell id="ao0SZSargIB-FPCJgtm4-9" value="+ generarFactura()" style="text;strokeColor=none;fillColor=none;align=left;verticalAlign=top;spacingLeft=4;spacingRight=4;overflow=hidden;rotatable=0;points=[[0,0.5],[1,0.5]];portConstraint=eastwest;" parent="ao0SZSargIB-FPCJgtm4-8" vertex="1">
          <mxGeometry y="26" width="355" height="29" as="geometry" />
        </mxCell>
        <mxCell id="ao0SZSargIB-FPCJgtm4-10" value="+ consultarFactura()" style="text;strokeColor=none;fillColor=none;align=left;verticalAlign=top;spacingLeft=4;spacingRight=4;overflow=hidden;rotatable=0;points=[[0,0.5],[1,0.5]];portConstraint=eastwest;" parent="ao0SZSargIB-FPCJgtm4-8" vertex="1">
          <mxGeometry y="55" width="355" height="26" as="geometry" />
        </mxCell>
        <mxCell id="ao0SZSargIB-FPCJgtm4-11" value="+ enviarFactura(Factura factura)" style="text;strokeColor=none;fillColor=none;align=left;verticalAlign=top;spacingLeft=4;spacingRight=4;overflow=hidden;rotatable=0;points=[[0,0.5],[1,0.5]];portConstraint=eastwest;" parent="ao0SZSargIB-FPCJgtm4-8" vertex="1">
          <mxGeometry y="81" width="355" height="26" as="geometry" />
        </mxCell>
        <mxCell id="0UY138ZUOvSj4V2idpC--43" value="+setMetodoPago(strategy MetodoPagoStrategy)" style="text;strokeColor=none;fillColor=none;align=left;verticalAlign=top;spacingLeft=4;spacingRight=4;overflow=hidden;rotatable=0;points=[[0,0.5],[1,0.5]];portConstraint=eastwest;" parent="ao0SZSargIB-FPCJgtm4-8" vertex="1">
          <mxGeometry y="107" width="355" height="26" as="geometry" />
        </mxCell>
        <mxCell id="btAXvUUHHN9Q6NV4Puo0-1" value="Model" style="shape=umlFrame;whiteSpace=wrap;html=1;pointerEvents=0;" parent="1" vertex="1">
          <mxGeometry x="1187" y="153" width="2010" height="824" as="geometry" />
        </mxCell>
        <mxCell id="btAXvUUHHN9Q6NV4Puo0-2" value="Orden" style="swimlane;fontStyle=1;align=center;verticalAlign=top;childLayout=stackLayout;horizontal=1;startSize=26;horizontalStack=0;resizeParent=1;resizeParentMax=0;resizeLast=0;collapsible=1;marginBottom=0;hachureGap=4;pointerEvents=0;" parent="1" vertex="1">
          <mxGeometry x="1755" y="184" width="355" height="248" as="geometry" />
        </mxCell>
        <mxCell id="btAXvUUHHN9Q6NV4Puo0-3" value="+ id: int " style="text;strokeColor=none;fillColor=none;align=left;verticalAlign=top;spacingLeft=4;spacingRight=4;overflow=hidden;rotatable=0;points=[[0,0.5],[1,0.5]];portConstraint=eastwest;" parent="btAXvUUHHN9Q6NV4Puo0-2" vertex="1">
          <mxGeometry y="26" width="355" height="24" as="geometry" />
        </mxCell>
        <mxCell id="wIaDEhrg52m_CKroYiqy-4" value="+ productosJson: String" style="text;strokeColor=none;fillColor=none;align=left;verticalAlign=top;spacingLeft=4;spacingRight=4;overflow=hidden;rotatable=0;points=[[0,0.5],[1,0.5]];portConstraint=eastwest;" parent="btAXvUUHHN9Q6NV4Puo0-2" vertex="1">
          <mxGeometry y="50" width="355" height="28" as="geometry" />
        </mxCell>
        <mxCell id="wIaDEhrg52m_CKroYiqy-7" value="+ estado: EstadoOrden" style="text;strokeColor=none;fillColor=none;align=left;verticalAlign=top;spacingLeft=4;spacingRight=4;overflow=hidden;rotatable=0;points=[[0,0.5],[1,0.5]];portConstraint=eastwest;" parent="btAXvUUHHN9Q6NV4Puo0-2" vertex="1">
          <mxGeometry y="78" width="355" height="28" as="geometry" />
        </mxCell>
        <mxCell id="tWbmudguXdJFlBCNDN5c-1" value="" style="line;strokeWidth=1;fillColor=none;align=left;verticalAlign=middle;spacingTop=-1;spacingLeft=3;spacingRight=3;rotatable=0;labelPosition=right;points=[];portConstraint=eastwest;strokeColor=inherit;fontColor=#000000;fontSize=12;fontFamily=Verdana;" parent="btAXvUUHHN9Q6NV4Puo0-2" vertex="1">
          <mxGeometry y="106" width="355" height="2" as="geometry" />
        </mxCell>
        <mxCell id="tWbmudguXdJFlBCNDN5c-2" value="+ cambiar_estado (String nuevo_estado)" style="text;strokeColor=none;fillColor=none;align=left;verticalAlign=top;spacingLeft=4;spacingRight=4;overflow=hidden;rotatable=0;points=[[0,0.5],[1,0.5]];portConstraint=eastwest;" parent="btAXvUUHHN9Q6NV4Puo0-2" vertex="1">
          <mxGeometry y="108" width="355" height="28" as="geometry" />
        </mxCell>
        <mxCell id="tWbmudguXdJFlBCNDN5c-3" value="+ avisar_cocina()" style="text;strokeColor=none;fillColor=none;align=left;verticalAlign=top;spacingLeft=4;spacingRight=4;overflow=hidden;rotatable=0;points=[[0,0.5],[1,0.5]];portConstraint=eastwest;" parent="btAXvUUHHN9Q6NV4Puo0-2" vertex="1">
          <mxGeometry y="136" width="355" height="28" as="geometry" />
        </mxCell>
        <mxCell id="tWbmudguXdJFlBCNDN5c-4" value="+ notificar_mesero()" style="text;strokeColor=none;fillColor=none;align=left;verticalAlign=top;spacingLeft=4;spacingRight=4;overflow=hidden;rotatable=0;points=[[0,0.5],[1,0.5]];portConstraint=eastwest;" parent="btAXvUUHHN9Q6NV4Puo0-2" vertex="1">
          <mxGeometry y="164" width="355" height="28" as="geometry" />
        </mxCell>
        <mxCell id="tWbmudguXdJFlBCNDN5c-5" value="+ notificar_cliente()" style="text;strokeColor=none;fillColor=none;align=left;verticalAlign=top;spacingLeft=4;spacingRight=4;overflow=hidden;rotatable=0;points=[[0,0.5],[1,0.5]];portConstraint=eastwest;" parent="btAXvUUHHN9Q6NV4Puo0-2" vertex="1">
          <mxGeometry y="192" width="355" height="28" as="geometry" />
        </mxCell>
        <mxCell id="tWbmudguXdJFlBCNDN5c-6" value="+ cancelar_orden()" style="text;strokeColor=none;fillColor=none;align=left;verticalAlign=top;spacingLeft=4;spacingRight=4;overflow=hidden;rotatable=0;points=[[0,0.5],[1,0.5]];portConstraint=eastwest;" parent="btAXvUUHHN9Q6NV4Puo0-2" vertex="1">
          <mxGeometry y="220" width="355" height="28" as="geometry" />
        </mxCell>
        <mxCell id="wIaDEhrg52m_CKroYiqy-13" value="Mesero" style="swimlane;fontStyle=1;align=center;verticalAlign=top;childLayout=stackLayout;horizontal=1;startSize=26;horizontalStack=0;resizeParent=1;resizeParentMax=0;resizeLast=0;collapsible=1;marginBottom=0;hachureGap=4;pointerEvents=0;" parent="1" vertex="1">
          <mxGeometry x="-620" y="385" width="355" height="116" as="geometry" />
        </mxCell>
        <mxCell id="wIaDEhrg52m_CKroYiqy-14" value="+ registrarMesero(int id, String cedula, String nombre,&#xa;String email, String telefono)" style="text;strokeColor=none;fillColor=none;align=left;verticalAlign=top;spacingLeft=4;spacingRight=4;overflow=hidden;rotatable=0;points=[[0,0.5],[1,0.5]];portConstraint=eastwest;" parent="wIaDEhrg52m_CKroYiqy-13" vertex="1">
          <mxGeometry y="26" width="355" height="38" as="geometry" />
        </mxCell>
        <mxCell id="wIaDEhrg52m_CKroYiqy-15" value="+ actualizarMesero(int id)" style="text;strokeColor=none;fillColor=none;align=left;verticalAlign=top;spacingLeft=4;spacingRight=4;overflow=hidden;rotatable=0;points=[[0,0.5],[1,0.5]];portConstraint=eastwest;" parent="wIaDEhrg52m_CKroYiqy-13" vertex="1">
          <mxGeometry y="64" width="355" height="26" as="geometry" />
        </mxCell>
        <mxCell id="wIaDEhrg52m_CKroYiqy-16" value="+ eliminarMesero(int id)" style="text;strokeColor=none;fillColor=none;align=left;verticalAlign=top;spacingLeft=4;spacingRight=4;overflow=hidden;rotatable=0;points=[[0,0.5],[1,0.5]];portConstraint=eastwest;" parent="wIaDEhrg52m_CKroYiqy-13" vertex="1">
          <mxGeometry y="90" width="355" height="26" as="geometry" />
        </mxCell>
        <mxCell id="11Htg5aJu_-M-eMUFh2G-1" value="DB Acces" style="shape=umlFrame;whiteSpace=wrap;html=1;pointerEvents=0;" parent="1" vertex="1">
          <mxGeometry x="163" y="993" width="603" height="417" as="geometry" />
        </mxCell>
        <mxCell id="0UY138ZUOvSj4V2idpC--3" value="Cliente" style="swimlane;fontStyle=1;align=center;verticalAlign=top;childLayout=stackLayout;horizontal=1;startSize=26;horizontalStack=0;resizeParent=1;resizeParentMax=0;resizeLast=0;collapsible=1;marginBottom=0;hachureGap=4;pointerEvents=0;" parent="1" vertex="1">
          <mxGeometry x="1287" y="735" width="355" height="190" as="geometry">
            <mxRectangle x="1036" y="416" width="71" height="26" as="alternateBounds" />
          </mxGeometry>
        </mxCell>
        <mxCell id="0UY138ZUOvSj4V2idpC--4" value="+ id: int " style="text;strokeColor=none;fillColor=none;align=left;verticalAlign=top;spacingLeft=4;spacingRight=4;overflow=hidden;rotatable=0;points=[[0,0.5],[1,0.5]];portConstraint=eastwest;" parent="0UY138ZUOvSj4V2idpC--3" vertex="1">
          <mxGeometry y="26" width="355" height="24" as="geometry" />
        </mxCell>
        <mxCell id="0UY138ZUOvSj4V2idpC--36" value="+ cedula: String " style="text;strokeColor=none;fillColor=none;align=left;verticalAlign=top;spacingLeft=4;spacingRight=4;overflow=hidden;rotatable=0;points=[[0,0.5],[1,0.5]];portConstraint=eastwest;" parent="0UY138ZUOvSj4V2idpC--3" vertex="1">
          <mxGeometry y="50" width="355" height="28" as="geometry" />
        </mxCell>
        <mxCell id="0UY138ZUOvSj4V2idpC--5" value="+ nombre: String " style="text;strokeColor=none;fillColor=none;align=left;verticalAlign=top;spacingLeft=4;spacingRight=4;overflow=hidden;rotatable=0;points=[[0,0.5],[1,0.5]];portConstraint=eastwest;" parent="0UY138ZUOvSj4V2idpC--3" vertex="1">
          <mxGeometry y="78" width="355" height="28" as="geometry" />
        </mxCell>
        <mxCell id="0UY138ZUOvSj4V2idpC--6" value="+ email: String" style="text;strokeColor=none;fillColor=none;align=left;verticalAlign=top;spacingLeft=4;spacingRight=4;overflow=hidden;rotatable=0;points=[[0,0.5],[1,0.5]];portConstraint=eastwest;" parent="0UY138ZUOvSj4V2idpC--3" vertex="1">
          <mxGeometry y="106" width="355" height="28" as="geometry" />
        </mxCell>
        <mxCell id="0UY138ZUOvSj4V2idpC--7" value="+ telefono: String " style="text;strokeColor=none;fillColor=none;align=left;verticalAlign=top;spacingLeft=4;spacingRight=4;overflow=hidden;rotatable=0;points=[[0,0.5],[1,0.5]];portConstraint=eastwest;" parent="0UY138ZUOvSj4V2idpC--3" vertex="1">
          <mxGeometry y="134" width="355" height="28" as="geometry" />
        </mxCell>
        <mxCell id="0UY138ZUOvSj4V2idpC--8" value="+ edad: int" style="text;strokeColor=none;fillColor=none;align=left;verticalAlign=top;spacingLeft=4;spacingRight=4;overflow=hidden;rotatable=0;points=[[0,0.5],[1,0.5]];portConstraint=eastwest;" parent="0UY138ZUOvSj4V2idpC--3" vertex="1">
          <mxGeometry y="162" width="355" height="28" as="geometry" />
        </mxCell>
        <mxCell id="0UY138ZUOvSj4V2idpC--11" value="Factura" style="swimlane;fontStyle=1;align=center;verticalAlign=top;childLayout=stackLayout;horizontal=1;startSize=28;horizontalStack=0;resizeParent=1;resizeParentMax=0;resizeLast=0;collapsible=1;marginBottom=0;hachureGap=4;pointerEvents=0;" parent="1" vertex="1">
          <mxGeometry x="1274" y="223" width="355" height="220" as="geometry" />
        </mxCell>
        <mxCell id="0UY138ZUOvSj4V2idpC--12" value="+ idOrden: int " style="text;strokeColor=none;fillColor=none;align=left;verticalAlign=top;spacingLeft=4;spacingRight=4;overflow=hidden;rotatable=0;points=[[0,0.5],[1,0.5]];portConstraint=eastwest;" parent="0UY138ZUOvSj4V2idpC--11" vertex="1">
          <mxGeometry y="28" width="355" height="24" as="geometry" />
        </mxCell>
        <mxCell id="0UY138ZUOvSj4V2idpC--13" value="+ cliente: Cliente " style="text;strokeColor=none;fillColor=none;align=left;verticalAlign=top;spacingLeft=4;spacingRight=4;overflow=hidden;rotatable=0;points=[[0,0.5],[1,0.5]];portConstraint=eastwest;" parent="0UY138ZUOvSj4V2idpC--11" vertex="1">
          <mxGeometry y="52" width="355" height="28" as="geometry" />
        </mxCell>
        <mxCell id="0UY138ZUOvSj4V2idpC--14" value="+ orden: Orden" style="text;strokeColor=none;fillColor=none;align=left;verticalAlign=top;spacingLeft=4;spacingRight=4;overflow=hidden;rotatable=0;points=[[0,0.5],[1,0.5]];portConstraint=eastwest;" parent="0UY138ZUOvSj4V2idpC--11" vertex="1">
          <mxGeometry y="80" width="355" height="28" as="geometry" />
        </mxCell>
        <mxCell id="0UY138ZUOvSj4V2idpC--15" value="+ total: float " style="text;strokeColor=none;fillColor=none;align=left;verticalAlign=top;spacingLeft=4;spacingRight=4;overflow=hidden;rotatable=0;points=[[0,0.5],[1,0.5]];portConstraint=eastwest;" parent="0UY138ZUOvSj4V2idpC--11" vertex="1">
          <mxGeometry y="108" width="355" height="28" as="geometry" />
        </mxCell>
        <mxCell id="0UY138ZUOvSj4V2idpC--16" value="+ fechaCreación: Date" style="text;strokeColor=none;fillColor=none;align=left;verticalAlign=top;spacingLeft=4;spacingRight=4;overflow=hidden;rotatable=0;points=[[0,0.5],[1,0.5]];portConstraint=eastwest;" parent="0UY138ZUOvSj4V2idpC--11" vertex="1">
          <mxGeometry y="136" width="355" height="28" as="geometry" />
        </mxCell>
        <mxCell id="0UY138ZUOvSj4V2idpC--18" value="+ meseroAsignado: Mesero " style="text;strokeColor=none;fillColor=none;align=left;verticalAlign=top;spacingLeft=4;spacingRight=4;overflow=hidden;rotatable=0;points=[[0,0.5],[1,0.5]];portConstraint=eastwest;" parent="0UY138ZUOvSj4V2idpC--11" vertex="1">
          <mxGeometry y="164" width="355" height="28" as="geometry" />
        </mxCell>
        <mxCell id="0UY138ZUOvSj4V2idpC--42" value="+ metodoDePagoJson: String " style="text;strokeColor=none;fillColor=none;align=left;verticalAlign=top;spacingLeft=4;spacingRight=4;overflow=hidden;rotatable=0;points=[[0,0.5],[1,0.5]];portConstraint=eastwest;" parent="0UY138ZUOvSj4V2idpC--11" vertex="1">
          <mxGeometry y="192" width="355" height="28" as="geometry" />
        </mxCell>
        <mxCell id="0UY138ZUOvSj4V2idpC--29" value="En caso de pedir alguna bebida alcohólica" style="shape=callout;whiteSpace=wrap;html=1;perimeter=calloutPerimeter;position2=0;size=29;position=0.16;base=11;" parent="1" vertex="1">
          <mxGeometry x="163" y="294" width="120" height="81" as="geometry" />
        </mxCell>
        <mxCell id="0UY138ZUOvSj4V2idpC--30" value="Mesero" style="swimlane;fontStyle=1;align=center;verticalAlign=top;childLayout=stackLayout;horizontal=1;startSize=26;horizontalStack=0;resizeParent=1;resizeParentMax=0;resizeLast=0;collapsible=1;marginBottom=0;hachureGap=4;pointerEvents=0;" parent="1" vertex="1">
          <mxGeometry x="1751" y="769" width="355" height="134" as="geometry">
            <mxRectangle x="1036" y="416" width="71" height="26" as="alternateBounds" />
          </mxGeometry>
        </mxCell>
        <mxCell id="0UY138ZUOvSj4V2idpC--31" value="+ id: int " style="text;strokeColor=none;fillColor=none;align=left;verticalAlign=top;spacingLeft=4;spacingRight=4;overflow=hidden;rotatable=0;points=[[0,0.5],[1,0.5]];portConstraint=eastwest;" parent="0UY138ZUOvSj4V2idpC--30" vertex="1">
          <mxGeometry y="26" width="355" height="24" as="geometry" />
        </mxCell>
        <mxCell id="0UY138ZUOvSj4V2idpC--32" value="+ nombre: String " style="text;strokeColor=none;fillColor=none;align=left;verticalAlign=top;spacingLeft=4;spacingRight=4;overflow=hidden;rotatable=0;points=[[0,0.5],[1,0.5]];portConstraint=eastwest;" parent="0UY138ZUOvSj4V2idpC--30" vertex="1">
          <mxGeometry y="50" width="355" height="28" as="geometry" />
        </mxCell>
        <mxCell id="0UY138ZUOvSj4V2idpC--33" value="+ email: String" style="text;strokeColor=none;fillColor=none;align=left;verticalAlign=top;spacingLeft=4;spacingRight=4;overflow=hidden;rotatable=0;points=[[0,0.5],[1,0.5]];portConstraint=eastwest;" parent="0UY138ZUOvSj4V2idpC--30" vertex="1">
          <mxGeometry y="78" width="355" height="28" as="geometry" />
        </mxCell>
        <mxCell id="0UY138ZUOvSj4V2idpC--34" value="+ telefono: String " style="text;strokeColor=none;fillColor=none;align=left;verticalAlign=top;spacingLeft=4;spacingRight=4;overflow=hidden;rotatable=0;points=[[0,0.5],[1,0.5]];portConstraint=eastwest;" parent="0UY138ZUOvSj4V2idpC--30" vertex="1">
          <mxGeometry y="106" width="355" height="28" as="geometry" />
        </mxCell>
        <mxCell id="0UY138ZUOvSj4V2idpC--37" value="DatafonoStrategy" style="swimlane;fontStyle=1;align=center;verticalAlign=top;childLayout=stackLayout;horizontal=1;startSize=26;horizontalStack=0;resizeParent=1;resizeParentMax=0;resizeLast=0;collapsible=1;marginBottom=0;hachureGap=4;pointerEvents=0;" parent="1" vertex="1">
          <mxGeometry x="-132" y="694" width="258" height="66" as="geometry" />
        </mxCell>
        <mxCell id="0UY138ZUOvSj4V2idpC--38" value="+setMetodoPago(String numeroTarjeta,&#xa;Date fechaExpiracion, String codigoSeguridad)" style="text;strokeColor=none;fillColor=none;align=left;verticalAlign=top;spacingLeft=4;spacingRight=4;overflow=hidden;rotatable=0;points=[[0,0.5],[1,0.5]];portConstraint=eastwest;" parent="0UY138ZUOvSj4V2idpC--37" vertex="1">
          <mxGeometry y="26" width="258" height="40" as="geometry" />
        </mxCell>
        <mxCell id="AYehmAOF6WZa0GniFeXl-1" value="«interface»&#xa;Strategy" style="swimlane;fontStyle=1;align=center;verticalAlign=top;childLayout=stackLayout;horizontal=1;startSize=38;horizontalStack=0;resizeParent=1;resizeParentMax=0;resizeLast=0;collapsible=1;marginBottom=0;hachureGap=4;pointerEvents=0;" parent="1" vertex="1">
          <mxGeometry x="185" y="524" width="175" height="67" as="geometry" />
        </mxCell>
        <mxCell id="AYehmAOF6WZa0GniFeXl-2" value="+setMetodoPago(*args: any)" style="text;strokeColor=none;fillColor=none;align=left;verticalAlign=top;spacingLeft=4;spacingRight=4;overflow=hidden;rotatable=0;points=[[0,0.5],[1,0.5]];portConstraint=eastwest;" parent="AYehmAOF6WZa0GniFeXl-1" vertex="1">
          <mxGeometry y="38" width="175" height="29" as="geometry" />
        </mxCell>
        <mxCell id="AYehmAOF6WZa0GniFeXl-10" value="" style="endArrow=block;endFill=0;endSize=12;html=1;rounded=0;exitX=0.5;exitY=0;exitDx=0;exitDy=0;entryX=0.511;entryY=1.155;entryDx=0;entryDy=0;entryPerimeter=0;edgeStyle=orthogonalEdgeStyle;" parent="AYehmAOF6WZa0GniFeXl-1" source="AYehmAOF6WZa0GniFeXl-7" edge="1">
          <mxGeometry width="160" relative="1" as="geometry">
            <mxPoint x="406.57000000000005" y="165.51" as="sourcePoint" />
            <mxPoint x="132.99500000000018" y="67.00499999999988" as="targetPoint" />
          </mxGeometry>
        </mxCell>
        <mxCell id="AYehmAOF6WZa0GniFeXl-3" value="" style="endArrow=open;html=1;endSize=12;startArrow=diamondThin;startSize=14;startFill=0;edgeStyle=orthogonalEdgeStyle;align=left;verticalAlign=bottom;rounded=0;exitX=1.007;exitY=0.102;exitDx=0;exitDy=0;entryX=0;entryY=0.25;entryDx=0;entryDy=0;exitPerimeter=0;strokeWidth=3;" parent="1" source="ao0SZSargIB-FPCJgtm4-8" target="AYehmAOF6WZa0GniFeXl-1" edge="1">
          <mxGeometry x="-1" y="3" relative="1" as="geometry">
            <mxPoint x="-198" y="585" as="sourcePoint" />
            <mxPoint x="-38" y="585" as="targetPoint" />
          </mxGeometry>
        </mxCell>
        <mxCell id="AYehmAOF6WZa0GniFeXl-4" value="" style="endArrow=block;endFill=0;endSize=12;html=1;rounded=0;exitX=0.5;exitY=0;exitDx=0;exitDy=0;entryX=0.284;entryY=1.073;entryDx=0;entryDy=0;entryPerimeter=0;edgeStyle=orthogonalEdgeStyle;" parent="1" source="0UY138ZUOvSj4V2idpC--37" target="AYehmAOF6WZa0GniFeXl-2" edge="1">
          <mxGeometry width="160" relative="1" as="geometry">
            <mxPoint x="-300" y="620" as="sourcePoint" />
            <mxPoint x="-140" y="620" as="targetPoint" />
            <Array as="points">
              <mxPoint x="-3" y="643" />
              <mxPoint x="235" y="643" />
            </Array>
          </mxGeometry>
        </mxCell>
        <mxCell id="AYehmAOF6WZa0GniFeXl-5" value="SinpeStrategy" style="swimlane;fontStyle=1;align=center;verticalAlign=top;childLayout=stackLayout;horizontal=1;startSize=26;horizontalStack=0;resizeParent=1;resizeParentMax=0;resizeLast=0;collapsible=1;marginBottom=0;hachureGap=4;pointerEvents=0;" parent="1" vertex="1">
          <mxGeometry x="143.5" y="694" width="258" height="66" as="geometry" />
        </mxCell>
        <mxCell id="AYehmAOF6WZa0GniFeXl-6" value="+setMetodoPago(String numeroDeCuenta,&#xa;float monto)" style="text;strokeColor=none;fillColor=none;align=left;verticalAlign=top;spacingLeft=4;spacingRight=4;overflow=hidden;rotatable=0;points=[[0,0.5],[1,0.5]];portConstraint=eastwest;" parent="AYehmAOF6WZa0GniFeXl-5" vertex="1">
          <mxGeometry y="26" width="258" height="40" as="geometry" />
        </mxCell>
        <mxCell id="AYehmAOF6WZa0GniFeXl-7" value="EfectivoStrategy" style="swimlane;fontStyle=1;align=center;verticalAlign=top;childLayout=stackLayout;horizontal=1;startSize=26;horizontalStack=0;resizeParent=1;resizeParentMax=0;resizeLast=0;collapsible=1;marginBottom=0;hachureGap=4;pointerEvents=0;" parent="1" vertex="1">
          <mxGeometry x="419" y="694" width="258" height="66" as="geometry" />
        </mxCell>
        <mxCell id="AYehmAOF6WZa0GniFeXl-8" value="+setMetodoPago(float montoRecibido,&#xa;float montoDevuelto)" style="text;strokeColor=none;fillColor=none;align=left;verticalAlign=top;spacingLeft=4;spacingRight=4;overflow=hidden;rotatable=0;points=[[0,0.5],[1,0.5]];portConstraint=eastwest;" parent="AYehmAOF6WZa0GniFeXl-7" vertex="1">
          <mxGeometry y="26" width="258" height="40" as="geometry" />
        </mxCell>
        <mxCell id="AYehmAOF6WZa0GniFeXl-9" value="" style="endArrow=block;endFill=0;endSize=12;html=1;rounded=0;exitX=0.5;exitY=0;exitDx=0;exitDy=0;entryX=0.494;entryY=1.073;entryDx=0;entryDy=0;entryPerimeter=0;" parent="1" source="AYehmAOF6WZa0GniFeXl-5" target="AYehmAOF6WZa0GniFeXl-2" edge="1">
          <mxGeometry width="160" relative="1" as="geometry">
            <mxPoint x="7" y="704" as="sourcePoint" />
            <mxPoint x="282" y="608" as="targetPoint" />
          </mxGeometry>
        </mxCell>
        <mxCell id="TLl34uHN5Xrtij8TyUEc-1" value="&lt;&lt;abstract&gt;&gt;&#xa;Persona" style="swimlane;fontStyle=1;align=center;verticalAlign=top;childLayout=stackLayout;horizontal=1;startSize=38;horizontalStack=0;resizeParent=1;resizeParentMax=0;resizeLast=0;collapsible=1;marginBottom=0;hachureGap=4;pointerEvents=0;" parent="1" vertex="1">
          <mxGeometry x="1629" y="529" width="211" height="146" as="geometry">
            <mxRectangle x="1036" y="416" width="71" height="26" as="alternateBounds" />
          </mxGeometry>
        </mxCell>
        <mxCell id="TLl34uHN5Xrtij8TyUEc-2" value="+ id: int " style="text;strokeColor=none;fillColor=none;align=left;verticalAlign=top;spacingLeft=4;spacingRight=4;overflow=hidden;rotatable=0;points=[[0,0.5],[1,0.5]];portConstraint=eastwest;" parent="TLl34uHN5Xrtij8TyUEc-1" vertex="1">
          <mxGeometry y="38" width="211" height="24" as="geometry" />
        </mxCell>
        <mxCell id="TLl34uHN5Xrtij8TyUEc-3" value="+ nombre: String " style="text;strokeColor=none;fillColor=none;align=left;verticalAlign=top;spacingLeft=4;spacingRight=4;overflow=hidden;rotatable=0;points=[[0,0.5],[1,0.5]];portConstraint=eastwest;" parent="TLl34uHN5Xrtij8TyUEc-1" vertex="1">
          <mxGeometry y="62" width="211" height="28" as="geometry" />
        </mxCell>
        <mxCell id="TLl34uHN5Xrtij8TyUEc-4" value="+ email: String" style="text;strokeColor=none;fillColor=none;align=left;verticalAlign=top;spacingLeft=4;spacingRight=4;overflow=hidden;rotatable=0;points=[[0,0.5],[1,0.5]];portConstraint=eastwest;" parent="TLl34uHN5Xrtij8TyUEc-1" vertex="1">
          <mxGeometry y="90" width="211" height="28" as="geometry" />
        </mxCell>
        <mxCell id="TLl34uHN5Xrtij8TyUEc-5" value="+ telefono: String " style="text;strokeColor=none;fillColor=none;align=left;verticalAlign=top;spacingLeft=4;spacingRight=4;overflow=hidden;rotatable=0;points=[[0,0.5],[1,0.5]];portConstraint=eastwest;" parent="TLl34uHN5Xrtij8TyUEc-1" vertex="1">
          <mxGeometry y="118" width="211" height="28" as="geometry" />
        </mxCell>
        <mxCell id="TLl34uHN5Xrtij8TyUEc-6" value="" style="endArrow=block;endFill=0;endSize=12;html=1;rounded=0;exitX=0.5;exitY=0;exitDx=0;exitDy=0;entryX=0.63;entryY=1.007;entryDx=0;entryDy=0;entryPerimeter=0;edgeStyle=orthogonalEdgeStyle;" parent="1" source="0UY138ZUOvSj4V2idpC--30" target="TLl34uHN5Xrtij8TyUEc-5" edge="1">
          <mxGeometry width="160" relative="1" as="geometry">
            <mxPoint x="2224" y="722" as="sourcePoint" />
            <mxPoint x="1993.9950000000001" y="619.0049999999999" as="targetPoint" />
          </mxGeometry>
        </mxCell>
        <mxCell id="TLl34uHN5Xrtij8TyUEc-7" value="" style="endArrow=block;endFill=0;endSize=12;html=1;rounded=0;exitX=0.5;exitY=0;exitDx=0;exitDy=0;entryX=0.308;entryY=0.964;entryDx=0;entryDy=0;entryPerimeter=0;edgeStyle=orthogonalEdgeStyle;" parent="1" source="0UY138ZUOvSj4V2idpC--3" target="TLl34uHN5Xrtij8TyUEc-5" edge="1">
          <mxGeometry width="160" relative="1" as="geometry">
            <mxPoint x="1579.5" y="680" as="sourcePoint" />
            <mxPoint x="1349.4950000000001" y="577.0049999999999" as="targetPoint" />
          </mxGeometry>
        </mxCell>
        <mxCell id="TLl34uHN5Xrtij8TyUEc-8" value="" style="endArrow=classic;html=1;rounded=0;entryX=-0.005;entryY=0.054;entryDx=0;entryDy=0;dashed=1;dashPattern=8 8;exitX=1;exitY=0.5;exitDx=0;exitDy=0;entryPerimeter=0;" parent="1" source="0UY138ZUOvSj4V2idpC--14" target="btAXvUUHHN9Q6NV4Puo0-2" edge="1">
          <mxGeometry width="50" height="50" relative="1" as="geometry">
            <mxPoint x="1801" y="471" as="sourcePoint" />
            <mxPoint x="1865" y="432" as="targetPoint" />
          </mxGeometry>
        </mxCell>
        <mxCell id="crQN8In2L0jpbC9HZe5P-1" value="" style="endArrow=open;html=1;endSize=12;startArrow=diamondThin;startSize=14;startFill=0;edgeStyle=orthogonalEdgeStyle;align=left;verticalAlign=bottom;rounded=0;exitX=1;exitY=0.5;exitDx=0;exitDy=0;entryX=-0.006;entryY=0.074;entryDx=0;entryDy=0;strokeWidth=3;entryPerimeter=0;" parent="1" source="wIaDEhrg52m_CKroYiqy-7" target="crQN8In2L0jpbC9HZe5P-9" edge="1">
          <mxGeometry x="-1" y="3" relative="1" as="geometry">
            <mxPoint x="2101" y="481" as="sourcePoint" />
            <mxPoint x="2481" y="441" as="targetPoint" />
          </mxGeometry>
        </mxCell>
        <mxCell id="crQN8In2L0jpbC9HZe5P-9" value="EstadoOrden                                     " style="swimlane;fontStyle=1;align=center;verticalAlign=top;childLayout=stackLayout;horizontal=1;startSize=26;horizontalStack=0;resizeParent=1;resizeParentMax=0;resizeLast=0;collapsible=1;marginBottom=0;hachureGap=4;pointerEvents=0;" parent="1" vertex="1">
          <mxGeometry x="2499" y="192" width="355" height="164" as="geometry" />
        </mxCell>
        <mxCell id="crQN8In2L0jpbC9HZe5P-10" value="+ orden: Orden" style="text;strokeColor=none;fillColor=none;align=left;verticalAlign=top;spacingLeft=4;spacingRight=4;overflow=hidden;rotatable=0;points=[[0,0.5],[1,0.5]];portConstraint=eastwest;" parent="crQN8In2L0jpbC9HZe5P-9" vertex="1">
          <mxGeometry y="26" width="355" height="24" as="geometry" />
        </mxCell>
        <mxCell id="tWbmudguXdJFlBCNDN5c-7" value="" style="line;strokeWidth=1;fillColor=none;align=left;verticalAlign=middle;spacingTop=-1;spacingLeft=3;spacingRight=3;rotatable=0;labelPosition=right;points=[];portConstraint=eastwest;strokeColor=inherit;fontColor=#000000;fontSize=12;fontFamily=Verdana;" parent="crQN8In2L0jpbC9HZe5P-9" vertex="1">
          <mxGeometry y="50" width="355" height="2" as="geometry" />
        </mxCell>
        <mxCell id="crQN8In2L0jpbC9HZe5P-11" value="+ avisar_cocina()" style="text;strokeColor=none;fillColor=none;align=left;verticalAlign=top;spacingLeft=4;spacingRight=4;overflow=hidden;rotatable=0;points=[[0,0.5],[1,0.5]];portConstraint=eastwest;" parent="crQN8In2L0jpbC9HZe5P-9" vertex="1">
          <mxGeometry y="52" width="355" height="28" as="geometry" />
        </mxCell>
        <mxCell id="crQN8In2L0jpbC9HZe5P-12" value="+ notificar_mesero()" style="text;strokeColor=none;fillColor=none;align=left;verticalAlign=top;spacingLeft=4;spacingRight=4;overflow=hidden;rotatable=0;points=[[0,0.5],[1,0.5]];portConstraint=eastwest;" parent="crQN8In2L0jpbC9HZe5P-9" vertex="1">
          <mxGeometry y="80" width="355" height="28" as="geometry" />
        </mxCell>
        <mxCell id="crQN8In2L0jpbC9HZe5P-13" value="+ notificar_cliente()" style="text;strokeColor=none;fillColor=none;align=left;verticalAlign=top;spacingLeft=4;spacingRight=4;overflow=hidden;rotatable=0;points=[[0,0.5],[1,0.5]];portConstraint=eastwest;" parent="crQN8In2L0jpbC9HZe5P-9" vertex="1">
          <mxGeometry y="108" width="355" height="28" as="geometry" />
        </mxCell>
        <mxCell id="crQN8In2L0jpbC9HZe5P-14" value="+ cancelar_orden()" style="text;strokeColor=none;fillColor=none;align=left;verticalAlign=top;spacingLeft=4;spacingRight=4;overflow=hidden;rotatable=0;points=[[0,0.5],[1,0.5]];portConstraint=eastwest;" parent="crQN8In2L0jpbC9HZe5P-9" vertex="1">
          <mxGeometry y="136" width="355" height="28" as="geometry" />
        </mxCell>
        <mxCell id="tWbmudguXdJFlBCNDN5c-8" value="EstadoPendiente         " style="swimlane;fontStyle=1;align=center;verticalAlign=top;childLayout=stackLayout;horizontal=1;startSize=26;horizontalStack=0;resizeParent=1;resizeParentMax=0;resizeLast=0;collapsible=1;marginBottom=0;hachureGap=4;pointerEvents=0;" parent="1" vertex="1">
          <mxGeometry x="2297" y="449" width="169" height="50" as="geometry">
            <mxRectangle x="1036" y="416" width="71" height="26" as="alternateBounds" />
          </mxGeometry>
        </mxCell>
        <mxCell id="tWbmudguXdJFlBCNDN5c-9" value="+ avisar_cocina() " style="text;strokeColor=none;fillColor=none;align=left;verticalAlign=top;spacingLeft=4;spacingRight=4;overflow=hidden;rotatable=0;points=[[0,0.5],[1,0.5]];portConstraint=eastwest;" parent="tWbmudguXdJFlBCNDN5c-8" vertex="1">
          <mxGeometry y="26" width="169" height="24" as="geometry" />
        </mxCell>
        <mxCell id="tWbmudguXdJFlBCNDN5c-13" value="" style="endArrow=block;endFill=0;endSize=12;html=1;rounded=0;exitX=0.5;exitY=0;exitDx=0;exitDy=0;entryX=0.172;entryY=1.005;entryDx=0;entryDy=0;entryPerimeter=0;edgeStyle=orthogonalEdgeStyle;" parent="1" source="tWbmudguXdJFlBCNDN5c-8" target="crQN8In2L0jpbC9HZe5P-14" edge="1">
          <mxGeometry width="160" relative="1" as="geometry">
            <mxPoint x="1939" y="779" as="sourcePoint" />
            <mxPoint x="1772" y="685" as="targetPoint" />
          </mxGeometry>
        </mxCell>
        <mxCell id="tWbmudguXdJFlBCNDN5c-14" value="EstadoLista" style="swimlane;fontStyle=1;align=center;verticalAlign=top;childLayout=stackLayout;horizontal=1;startSize=26;horizontalStack=0;resizeParent=1;resizeParentMax=0;resizeLast=0;collapsible=1;marginBottom=0;hachureGap=4;pointerEvents=0;" parent="1" vertex="1">
          <mxGeometry x="2485" y="452" width="169" height="50" as="geometry">
            <mxRectangle x="1036" y="416" width="71" height="26" as="alternateBounds" />
          </mxGeometry>
        </mxCell>
        <mxCell id="tWbmudguXdJFlBCNDN5c-15" value="+ notificar_mesero()  " style="text;strokeColor=none;fillColor=none;align=left;verticalAlign=top;spacingLeft=4;spacingRight=4;overflow=hidden;rotatable=0;points=[[0,0.5],[1,0.5]];portConstraint=eastwest;" parent="tWbmudguXdJFlBCNDN5c-14" vertex="1">
          <mxGeometry y="26" width="169" height="24" as="geometry" />
        </mxCell>
        <mxCell id="tWbmudguXdJFlBCNDN5c-16" value="EstadoEntregada                          " style="swimlane;fontStyle=1;align=center;verticalAlign=top;childLayout=stackLayout;horizontal=1;startSize=26;horizontalStack=0;resizeParent=1;resizeParentMax=0;resizeLast=0;collapsible=1;marginBottom=0;hachureGap=4;pointerEvents=0;" parent="1" vertex="1">
          <mxGeometry x="2685" y="452" width="169" height="50" as="geometry">
            <mxRectangle x="1036" y="416" width="71" height="26" as="alternateBounds" />
          </mxGeometry>
        </mxCell>
        <mxCell id="tWbmudguXdJFlBCNDN5c-17" value="+ notificar_cliente()     " style="text;strokeColor=none;fillColor=none;align=left;verticalAlign=top;spacingLeft=4;spacingRight=4;overflow=hidden;rotatable=0;points=[[0,0.5],[1,0.5]];portConstraint=eastwest;" parent="tWbmudguXdJFlBCNDN5c-16" vertex="1">
          <mxGeometry y="26" width="169" height="24" as="geometry" />
        </mxCell>
        <mxCell id="tWbmudguXdJFlBCNDN5c-18" value="EstadoCancelada                                   " style="swimlane;fontStyle=1;align=center;verticalAlign=top;childLayout=stackLayout;horizontal=1;startSize=26;horizontalStack=0;resizeParent=1;resizeParentMax=0;resizeLast=0;collapsible=1;marginBottom=0;hachureGap=4;pointerEvents=0;" parent="1" vertex="1">
          <mxGeometry x="2882" y="452" width="169" height="50" as="geometry">
            <mxRectangle x="1036" y="416" width="71" height="26" as="alternateBounds" />
          </mxGeometry>
        </mxCell>
        <mxCell id="tWbmudguXdJFlBCNDN5c-19" value="+ cancelar_orden()     " style="text;strokeColor=none;fillColor=none;align=left;verticalAlign=top;spacingLeft=4;spacingRight=4;overflow=hidden;rotatable=0;points=[[0,0.5],[1,0.5]];portConstraint=eastwest;" parent="tWbmudguXdJFlBCNDN5c-18" vertex="1">
          <mxGeometry y="26" width="169" height="24" as="geometry" />
        </mxCell>
        <mxCell id="tWbmudguXdJFlBCNDN5c-20" value="" style="endArrow=block;endFill=0;endSize=12;html=1;rounded=0;exitX=0.5;exitY=0;exitDx=0;exitDy=0;entryX=0.302;entryY=1.027;entryDx=0;entryDy=0;entryPerimeter=0;edgeStyle=orthogonalEdgeStyle;" parent="1" source="tWbmudguXdJFlBCNDN5c-14" target="crQN8In2L0jpbC9HZe5P-14" edge="1">
          <mxGeometry width="160" relative="1" as="geometry">
            <mxPoint x="2331" y="434" as="sourcePoint" />
            <mxPoint x="2570" y="366" as="targetPoint" />
          </mxGeometry>
        </mxCell>
        <mxCell id="tWbmudguXdJFlBCNDN5c-21" value="" style="endArrow=block;endFill=0;endSize=12;html=1;rounded=0;exitX=0.5;exitY=0;exitDx=0;exitDy=0;entryX=0.486;entryY=1.005;entryDx=0;entryDy=0;entryPerimeter=0;edgeStyle=orthogonalEdgeStyle;" parent="1" source="tWbmudguXdJFlBCNDN5c-16" target="crQN8In2L0jpbC9HZe5P-14" edge="1">
          <mxGeometry width="160" relative="1" as="geometry">
            <mxPoint x="2844.5" y="573.24" as="sourcePoint" />
            <mxPoint x="2880.5" y="478.24" as="targetPoint" />
          </mxGeometry>
        </mxCell>
        <mxCell id="tWbmudguXdJFlBCNDN5c-22" value="" style="endArrow=block;endFill=0;endSize=12;html=1;rounded=0;exitX=0.5;exitY=0;exitDx=0;exitDy=0;entryX=0.844;entryY=1.027;entryDx=0;entryDy=0;entryPerimeter=0;edgeStyle=orthogonalEdgeStyle;" parent="1" source="tWbmudguXdJFlBCNDN5c-18" target="crQN8In2L0jpbC9HZe5P-14" edge="1">
          <mxGeometry width="160" relative="1" as="geometry">
            <mxPoint x="2780" y="462" as="sourcePoint" />
            <mxPoint x="2682" y="366" as="targetPoint" />
          </mxGeometry>
        </mxCell>
        <mxCell id="tWbmudguXdJFlBCNDN5c-23" value="SQLDbManager" style="swimlane;fontStyle=1;align=center;verticalAlign=top;childLayout=stackLayout;horizontal=1;startSize=26;horizontalStack=0;resizeParent=1;resizeParentMax=0;resizeLast=0;collapsible=1;marginBottom=0;hachureGap=4;pointerEvents=0;" parent="1" vertex="1">
          <mxGeometry x="204" y="1060.5" width="218" height="149" as="geometry" />
        </mxCell>
        <mxCell id="tWbmudguXdJFlBCNDN5c-24" value="+ CreateConnection()" style="text;strokeColor=none;fillColor=none;align=left;verticalAlign=top;spacingLeft=4;spacingRight=4;overflow=hidden;rotatable=0;points=[[0,0.5],[1,0.5]];portConstraint=eastwest;" parent="tWbmudguXdJFlBCNDN5c-23" vertex="1">
          <mxGeometry y="26" width="218" height="26" as="geometry" />
        </mxCell>
        <mxCell id="tWbmudguXdJFlBCNDN5c-25" value="+ ExecuteTransact(string: SPName,&#xa;List&lt;DBParameters&gt; params)" style="text;strokeColor=none;fillColor=none;align=left;verticalAlign=top;spacingLeft=4;spacingRight=4;overflow=hidden;rotatable=0;points=[[0,0.5],[1,0.5]];portConstraint=eastwest;" parent="tWbmudguXdJFlBCNDN5c-23" vertex="1">
          <mxGeometry y="52" width="218" height="37" as="geometry" />
        </mxCell>
        <mxCell id="tWbmudguXdJFlBCNDN5c-26" value="+ GetData(string: SPName,&#xa;List&lt;DBParameters&gt; &#xa;params): DBDataSetResult" style="text;strokeColor=none;fillColor=none;align=left;verticalAlign=top;spacingLeft=4;spacingRight=4;overflow=hidden;rotatable=0;points=[[0,0.5],[1,0.5]];portConstraint=eastwest;" parent="tWbmudguXdJFlBCNDN5c-23" vertex="1">
          <mxGeometry y="89" width="218" height="60" as="geometry" />
        </mxCell>
        <mxCell id="tWbmudguXdJFlBCNDN5c-27" value="" style="endArrow=block;endSize=16;endFill=0;html=1;rounded=0;" parent="1" source="tWbmudguXdJFlBCNDN5c-23" target="tWbmudguXdJFlBCNDN5c-29" edge="1">
          <mxGeometry width="160" relative="1" as="geometry">
            <mxPoint x="1012" y="1158.5" as="sourcePoint" />
            <mxPoint x="513" y="1137.0939597315437" as="targetPoint" />
          </mxGeometry>
        </mxCell>
        <mxCell id="tWbmudguXdJFlBCNDN5c-28" style="edgeStyle=orthogonalEdgeStyle;rounded=0;orthogonalLoop=1;jettySize=auto;html=1;dashed=1;" parent="1" source="tWbmudguXdJFlBCNDN5c-29" target="tWbmudguXdJFlBCNDN5c-35" edge="1">
          <mxGeometry relative="1" as="geometry">
            <Array as="points">
              <mxPoint x="580" y="1227.5" />
              <mxPoint x="619" y="1227.5" />
            </Array>
          </mxGeometry>
        </mxCell>
        <mxCell id="tWbmudguXdJFlBCNDN5c-29" value="&lt;i style=&quot;border-color: var(--border-color); font-weight: 400;&quot;&gt;&amp;lt;&amp;lt;Interface&amp;gt;&amp;gt;&lt;/i&gt;&lt;br style=&quot;border-color: var(--border-color); font-weight: 400;&quot;&gt;&lt;b style=&quot;border-color: var(--border-color);&quot;&gt;IDbManager&lt;/b&gt;" style="swimlane;fontStyle=1;align=center;verticalAlign=top;childLayout=stackLayout;horizontal=1;startSize=33;horizontalStack=0;resizeParent=1;resizeParentMax=0;resizeLast=0;collapsible=1;marginBottom=0;whiteSpace=wrap;html=1;" parent="1" vertex="1">
          <mxGeometry x="474" y="1051" width="212" height="168" as="geometry" />
        </mxCell>
        <mxCell id="tWbmudguXdJFlBCNDN5c-30" value="" style="line;strokeWidth=1;fillColor=none;align=left;verticalAlign=middle;spacingTop=-1;spacingLeft=3;spacingRight=3;rotatable=0;labelPosition=right;points=[];portConstraint=eastwest;strokeColor=inherit;" parent="tWbmudguXdJFlBCNDN5c-29" vertex="1">
          <mxGeometry y="33" width="212" height="8" as="geometry" />
        </mxCell>
        <mxCell id="tWbmudguXdJFlBCNDN5c-31" value="+ CreateConnection()" style="text;strokeColor=none;fillColor=none;align=left;verticalAlign=top;spacingLeft=4;spacingRight=4;overflow=hidden;rotatable=0;points=[[0,0.5],[1,0.5]];portConstraint=eastwest;whiteSpace=wrap;html=1;" parent="tWbmudguXdJFlBCNDN5c-29" vertex="1">
          <mxGeometry y="41" width="212" height="26" as="geometry" />
        </mxCell>
        <mxCell id="tWbmudguXdJFlBCNDN5c-32" value="+ ExecuteTransact(string: SPName,&lt;br style=&quot;border-color: var(--border-color); padding: 0px; margin: 0px;&quot;&gt;&lt;span style=&quot;&quot;&gt;List&amp;lt;DBParameters&amp;gt; params)&lt;/span&gt;" style="text;strokeColor=none;fillColor=none;align=left;verticalAlign=top;spacingLeft=4;spacingRight=4;overflow=hidden;rotatable=0;points=[[0,0.5],[1,0.5]];portConstraint=eastwest;whiteSpace=wrap;html=1;" parent="tWbmudguXdJFlBCNDN5c-29" vertex="1">
          <mxGeometry y="67" width="212" height="47" as="geometry" />
        </mxCell>
        <mxCell id="tWbmudguXdJFlBCNDN5c-33" value="+ GetData(string: SPName,&lt;br style=&quot;border-color: var(--border-color); padding: 0px; margin: 0px;&quot;&gt;&lt;span style=&quot;&quot;&gt;List&amp;lt;DBParameters&amp;gt; params):&amp;nbsp;&lt;/span&gt;&lt;span style=&quot;border-color: var(--border-color); text-align: center;&quot;&gt;DBDataSetResult&lt;/span&gt;" style="text;strokeColor=none;fillColor=none;align=left;verticalAlign=top;spacingLeft=4;spacingRight=4;overflow=hidden;rotatable=0;points=[[0,0.5],[1,0.5]];portConstraint=eastwest;whiteSpace=wrap;html=1;" parent="tWbmudguXdJFlBCNDN5c-29" vertex="1">
          <mxGeometry y="114" width="212" height="54" as="geometry" />
        </mxCell>
        <mxCell id="tWbmudguXdJFlBCNDN5c-34" style="edgeStyle=orthogonalEdgeStyle;rounded=0;orthogonalLoop=1;jettySize=auto;html=1;dashed=1;" parent="1" source="tWbmudguXdJFlBCNDN5c-35" target="tWbmudguXdJFlBCNDN5c-47" edge="1">
          <mxGeometry relative="1" as="geometry" />
        </mxCell>
        <mxCell id="tWbmudguXdJFlBCNDN5c-35" value="&lt;b style=&quot;border-color: var(--border-color);&quot;&gt;DBParameters&lt;/b&gt;" style="swimlane;fontStyle=1;align=center;verticalAlign=top;childLayout=stackLayout;horizontal=1;startSize=33;horizontalStack=0;resizeParent=1;resizeParentMax=0;resizeLast=0;collapsible=1;marginBottom=0;whiteSpace=wrap;html=1;" parent="1" vertex="1">
          <mxGeometry x="524" y="1242.5" width="189" height="119" as="geometry" />
        </mxCell>
        <mxCell id="tWbmudguXdJFlBCNDN5c-36" value="" style="line;strokeWidth=1;fillColor=none;align=left;verticalAlign=middle;spacingTop=-1;spacingLeft=3;spacingRight=3;rotatable=0;labelPosition=right;points=[];portConstraint=eastwest;strokeColor=inherit;" parent="tWbmudguXdJFlBCNDN5c-35" vertex="1">
          <mxGeometry y="33" width="189" height="8" as="geometry" />
        </mxCell>
        <mxCell id="tWbmudguXdJFlBCNDN5c-37" value="+ ParamName: string" style="text;strokeColor=none;fillColor=none;align=left;verticalAlign=top;spacingLeft=4;spacingRight=4;overflow=hidden;rotatable=0;points=[[0,0.5],[1,0.5]];portConstraint=eastwest;whiteSpace=wrap;html=1;" parent="tWbmudguXdJFlBCNDN5c-35" vertex="1">
          <mxGeometry y="41" width="189" height="26" as="geometry" />
        </mxCell>
        <mxCell id="tWbmudguXdJFlBCNDN5c-38" value="+ DataType: EDataType" style="text;strokeColor=none;fillColor=none;align=left;verticalAlign=top;spacingLeft=4;spacingRight=4;overflow=hidden;rotatable=0;points=[[0,0.5],[1,0.5]];portConstraint=eastwest;whiteSpace=wrap;html=1;" parent="tWbmudguXdJFlBCNDN5c-35" vertex="1">
          <mxGeometry y="67" width="189" height="26" as="geometry" />
        </mxCell>
        <mxCell id="tWbmudguXdJFlBCNDN5c-39" value="+ Value: object" style="text;strokeColor=none;fillColor=none;align=left;verticalAlign=top;spacingLeft=4;spacingRight=4;overflow=hidden;rotatable=0;points=[[0,0.5],[1,0.5]];portConstraint=eastwest;whiteSpace=wrap;html=1;" parent="tWbmudguXdJFlBCNDN5c-35" vertex="1">
          <mxGeometry y="93" width="189" height="26" as="geometry" />
        </mxCell>
        <mxCell id="tWbmudguXdJFlBCNDN5c-40" style="edgeStyle=orthogonalEdgeStyle;rounded=0;orthogonalLoop=1;jettySize=auto;html=1;dashed=1;" parent="1" source="tWbmudguXdJFlBCNDN5c-41" target="tWbmudguXdJFlBCNDN5c-47" edge="1">
          <mxGeometry relative="1" as="geometry" />
        </mxCell>
        <mxCell id="tWbmudguXdJFlBCNDN5c-41" value="&lt;b style=&quot;border-color: var(--border-color);&quot;&gt;DBDataSetResult&lt;/b&gt;" style="swimlane;fontStyle=1;align=center;verticalAlign=top;childLayout=stackLayout;horizontal=1;startSize=33;horizontalStack=0;resizeParent=1;resizeParentMax=0;resizeLast=0;collapsible=1;marginBottom=0;whiteSpace=wrap;html=1;" parent="1" vertex="1">
          <mxGeometry x="215" y="1227.5" width="144" height="145" as="geometry" />
        </mxCell>
        <mxCell id="tWbmudguXdJFlBCNDN5c-42" value="" style="line;strokeWidth=1;fillColor=none;align=left;verticalAlign=middle;spacingTop=-1;spacingLeft=3;spacingRight=3;rotatable=0;labelPosition=right;points=[];portConstraint=eastwest;strokeColor=inherit;" parent="tWbmudguXdJFlBCNDN5c-41" vertex="1">
          <mxGeometry y="33" width="144" height="8" as="geometry" />
        </mxCell>
        <mxCell id="tWbmudguXdJFlBCNDN5c-43" value="+ FieldName: string" style="text;strokeColor=none;fillColor=none;align=left;verticalAlign=top;spacingLeft=4;spacingRight=4;overflow=hidden;rotatable=0;points=[[0,0.5],[1,0.5]];portConstraint=eastwest;whiteSpace=wrap;html=1;" parent="tWbmudguXdJFlBCNDN5c-41" vertex="1">
          <mxGeometry y="41" width="144" height="26" as="geometry" />
        </mxCell>
        <mxCell id="tWbmudguXdJFlBCNDN5c-44" value="+ value: object" style="text;strokeColor=none;fillColor=none;align=left;verticalAlign=top;spacingLeft=4;spacingRight=4;overflow=hidden;rotatable=0;points=[[0,0.5],[1,0.5]];portConstraint=eastwest;whiteSpace=wrap;html=1;" parent="tWbmudguXdJFlBCNDN5c-41" vertex="1">
          <mxGeometry y="67" width="144" height="26" as="geometry" />
        </mxCell>
        <mxCell id="tWbmudguXdJFlBCNDN5c-45" value="+ TableName: string" style="text;strokeColor=none;fillColor=none;align=left;verticalAlign=top;spacingLeft=4;spacingRight=4;overflow=hidden;rotatable=0;points=[[0,0.5],[1,0.5]];portConstraint=eastwest;whiteSpace=wrap;html=1;" parent="tWbmudguXdJFlBCNDN5c-41" vertex="1">
          <mxGeometry y="93" width="144" height="26" as="geometry" />
        </mxCell>
        <mxCell id="tWbmudguXdJFlBCNDN5c-46" value="+ DataType: EDataType" style="text;strokeColor=none;fillColor=none;align=left;verticalAlign=top;spacingLeft=4;spacingRight=4;overflow=hidden;rotatable=0;points=[[0,0.5],[1,0.5]];portConstraint=eastwest;whiteSpace=wrap;html=1;" parent="tWbmudguXdJFlBCNDN5c-41" vertex="1">
          <mxGeometry y="119" width="144" height="26" as="geometry" />
        </mxCell>
        <mxCell id="tWbmudguXdJFlBCNDN5c-47" value="&lt;p style=&quot;margin:0px;margin-top:4px;text-align:center;&quot;&gt;&lt;i&gt;&amp;lt;&amp;lt;enumerator&amp;gt;&amp;gt;&lt;/i&gt;&lt;br&gt;EDataType&lt;br&gt;&lt;/p&gt;&lt;hr size=&quot;1&quot;&gt;&lt;p style=&quot;margin:0px;margin-left:4px;&quot;&gt;TEXT&lt;br&gt;NUMERIC&lt;/p&gt;&lt;p style=&quot;margin:0px;margin-left:4px;&quot;&gt;DATETIME&lt;br&gt;BOOL&lt;/p&gt;&lt;p style=&quot;margin:0px;margin-left:4px;&quot;&gt;BINARY&lt;/p&gt;" style="verticalAlign=top;align=left;overflow=fill;html=1;whiteSpace=wrap;" parent="1" vertex="1">
          <mxGeometry x="391" y="1238.5" width="106" height="123" as="geometry" />
        </mxCell>
        <mxCell id="tWbmudguXdJFlBCNDN5c-49" value="No necesita tener estado porque el pago se realiza al momento." style="shape=callout;whiteSpace=wrap;html=1;perimeter=calloutPerimeter;position2=1;size=33;position=0.68;base=17;" parent="1" vertex="1">
          <mxGeometry x="1113" y="273" width="139" height="83" as="geometry" />
        </mxCell>
      </root>
    </mxGraphModel>
  </diagram>
</mxfile>
